<svg data-v-423bf9ae="" xmlns="http://www.w3.org/2000/svg" viewBox="0 0 373 90" class="iconLeftSlogan"><!----><!----><!----><g data-v-423bf9ae="" id="c6db73cd-3df4-41c5-bde3-e1d244e8639c" fill="#000000" transform="matrix(5.676442926425062,0,0,5.676442926425062,136.5313206756025,-13.509935768183304)"><path d="M0.07 4.55L2.59 4.55L2.59 12.60L4.55 12.60L4.55 4.55L7.07 4.55L7.07 2.80L0.07 2.80ZM11.41 8.54L9.10 2.80L6.93 2.80L11.13 12.95L14.28 6.65L17.43 12.95L21.63 2.80L19.46 2.80L17.15 8.54L14.28 2.59ZM22.33 2.80L22.33 12.60L24.29 12.60L24.29 2.80ZM25.27 4.55L27.79 4.55L27.79 12.60L29.75 12.60L29.75 4.55L32.27 4.55L32.27 2.80L25.27 2.80ZM36.40 2.38L31.15 12.60L33.25 12.60L34.38 10.22L38.42 10.22L39.55 12.60L41.65 12.60ZM36.40 6.02L37.60 8.54L35.20 8.54Z"></path></g><defs data-v-423bf9ae=""><linearGradient data-v-423bf9ae="" gradientTransform="rotate(25)" id="8af83d11-907c-4d5e-872d-1f5e02d749d3" x1="0%" y1="0%" x2="100%" y2="0%"><stop data-v-423bf9ae="" offset="0%" style="stop-color: rgb(0, 118, 221); stop-opacity: 1;"></stop><stop data-v-423bf9ae="" offset="100%" style="stop-color: rgb(0, 205, 233); stop-opacity: 1;"></stop></linearGradient></defs><g data-v-423bf9ae="" id="e87f4574-86f7-4b30-a1fe-dd69e69eb965" transform="matrix(1.2992074342126783,0,0,1.2992074342126783,-5.960371710633908,-19.60091267251569)" stroke="none" fill="url(#8af83d11-907c-4d5e-872d-1f5e02d749d3)"><path d="M65.934 27.473c-6.352-7.405-15.777-12.096-26.297-12.096C20.507 15.377 5 30.884 5 50.013 5 69.143 20.507 84.65 39.637 84.65c10.52 0 19.945-4.692 26.297-12.096l-21.968-22.54 21.968-22.541zm-17.638-3.937a4.83 4.83 0 1 1 0 9.659 4.83 4.83 0 0 1 0-9.659z"></path><path d="M65.415 46.92a3.098 3.098 0 0 0-3.094 3.093 3.098 3.098 0 0 0 3.094 3.094h26.491A3.098 3.098 0 0 0 95 50.013a3.098 3.098 0 0 0-3.094-3.093zM65.415 35.386a3.098 3.098 0 0 0-3.094 3.094 3.098 3.098 0 0 0 3.094 3.093h20.724a3.098 3.098 0 0 0 3.094-3.093 3.098 3.098 0 0 0-3.094-3.094zM65.415 58.454a3.098 3.098 0 0 0-3.094 3.093 3.098 3.098 0 0 0 3.094 3.094h20.724a3.098 3.098 0 0 0 3.094-3.094 3.098 3.098 0 0 0-3.094-3.093z" color="#000"></path></g><!----><g data-v-423bf9ae="" id="6acc2868-2917-4113-aebc-a800fe1f31d4" fill="#000000" transform="matrix(0.42643510959111663,0,0,0.42643510959111663,136.5704639637322,57.57784699124139)"><path d="M0.84 6.97L0.84 5.88L7.73 5.88L7.73 6.97L4.87 6.97L4.87 15.68L3.70 15.68L3.70 6.97L0.84 6.97ZM16.59 15.68L16.59 5.88L17.77 5.88L17.77 10.22L21.94 10.22L21.94 5.88L23.11 5.88L23.11 15.68L21.94 15.68L21.94 11.31L17.77 11.31L17.77 15.68L16.59 15.68ZM38.23 15.68L37.52 13.24L33.32 13.24L32.61 15.68L31.35 15.68L34.31 5.88L36.53 5.88L39.49 15.68L38.23 15.68ZM35.50 6.38L35.34 6.38L33.64 12.15L37.20 12.15L35.50 6.38ZM47.54 6.97L47.54 5.88L54.43 5.88L54.43 6.97L51.58 6.97L51.58 15.68L50.40 15.68L50.40 6.97L47.54 6.97ZM65.58 6.66L65.58 6.66L65.58 6.66Q65.58 6.26 65.86 5.97L65.86 5.97L65.86 5.97Q66.15 5.68 66.56 5.68L66.56 5.68L66.56 5.68Q66.96 5.68 67.25 5.97L67.25 5.97L67.25 5.97Q67.54 6.26 67.54 6.66L67.54 6.66L67.54 6.66Q67.54 6.97 67.37 7.22L67.37 7.22L67.37 7.22Q67.20 7.46 66.93 7.57L66.93 7.57L66.93 9.13L66.18 9.13L66.18 7.57L66.18 7.57Q65.91 7.46 65.74 7.22L65.74 7.22L65.74 7.22Q65.58 6.97 65.58 6.66ZM84.43 9.21L84.43 8.71L84.43 8.71Q84.43 8.23 84.25 7.87L84.25 7.87L84.25 7.87Q84.06 7.50 83.73 7.27L83.73 7.27L83.73 7.27Q83.41 7.03 82.99 6.90L82.99 6.90L82.99 6.90Q82.57 6.78 82.11 6.78L82.11 6.78L82.11 6.78Q81.70 6.78 81.34 6.88L81.34 6.88L81.34 6.88Q80.98 6.99 80.69 7.18L80.69 7.18L80.69 7.18Q80.40 7.38 80.23 7.66L80.23 7.66L80.23 7.66Q80.07 7.95 80.07 8.33L80.07 8.33L80.07 8.41L80.07 8.41Q80.07 8.82 80.23 9.11L80.23 9.11L80.23 9.11Q80.40 9.39 80.73 9.60L80.73 9.60L80.73 9.60Q81.06 9.80 81.55 9.93L81.55 9.93L81.55 9.93Q82.04 10.07 82.70 10.16L82.70 10.16L82.70 10.16Q84.24 10.40 84.97 11.07L84.97 11.07L84.97 11.07Q85.69 11.73 85.69 12.85L85.69 12.85L85.69 13.02L85.69 13.02Q85.69 13.65 85.48 14.17L85.48 14.17L85.48 14.17Q85.26 14.70 84.83 15.08L84.83 15.08L84.83 15.08Q84.41 15.46 83.78 15.67L83.78 15.67L83.78 15.67Q83.15 15.88 82.32 15.88L82.32 15.88L82.32 15.88Q81.38 15.88 80.66 15.60L80.66 15.60L80.66 15.60Q79.94 15.33 79.46 14.85L79.46 14.85L79.46 14.85Q78.97 14.36 78.72 13.71L78.72 13.71L78.72 13.71Q78.47 13.06 78.47 12.29L78.47 12.29L78.47 11.87L79.65 11.87L79.65 12.21L79.65 12.21Q79.65 13.50 80.35 14.14L80.35 14.14L80.35 14.14Q81.06 14.78 82.32 14.78L82.32 14.78L82.32 14.78Q83.41 14.78 83.97 14.30L83.97 14.30L83.97 14.30Q84.52 13.82 84.52 13.02L84.52 13.02L84.52 12.94L84.52 12.94Q84.52 12.17 83.95 11.76L83.95 11.76L83.95 11.76Q83.38 11.35 82.11 11.17L82.11 11.17L82.11 11.17Q81.37 11.07 80.77 10.87L80.77 10.87L80.77 10.87Q80.18 10.67 79.76 10.34L79.76 10.34L79.76 10.34Q79.34 10.01 79.11 9.55L79.11 9.55L79.11 9.55Q78.89 9.09 78.89 8.46L78.89 8.46L78.89 8.29L78.89 8.29Q78.89 7.71 79.13 7.24L79.13 7.24L79.13 7.24Q79.37 6.76 79.79 6.41L79.79 6.41L79.79 6.41Q80.22 6.06 80.81 5.87L80.81 5.87L80.81 5.87Q81.41 5.68 82.12 5.68L82.12 5.68L82.12 5.68Q82.95 5.68 83.60 5.92L83.60 5.92L83.60 5.92Q84.25 6.16 84.70 6.56L84.70 6.56L84.70 6.56Q85.15 6.96 85.38 7.50L85.38 7.50L85.38 7.50Q85.61 8.04 85.61 8.62L85.61 8.62L85.61 9.21L84.43 9.21ZM117.39 5.88L116.40 15.68L114.25 15.68L113.34 6.38L113.18 6.38L112.27 15.68L110.12 15.68L109.13 5.88L110.19 5.88L111.13 15.18L111.30 15.18L112.18 5.88L114.34 5.88L115.22 15.18L115.39 15.18L116.33 5.88L117.39 5.88ZM125.57 15.68L125.57 5.88L126.74 5.88L126.74 10.22L130.91 10.22L130.91 5.88L132.09 5.88L132.09 15.68L130.91 15.68L130.91 11.31L126.74 11.31L126.74 15.68L125.57 15.68ZM147.21 15.68L146.50 13.24L142.30 13.24L141.58 15.68L140.32 15.68L143.29 5.88L145.50 5.88L148.47 15.68L147.21 15.68ZM144.48 6.38L144.31 6.38L142.62 12.15L146.17 12.15L144.48 6.38ZM156.52 6.97L156.52 5.88L163.41 5.88L163.41 6.97L160.55 6.97L160.55 15.68L159.38 15.68L159.38 6.97L156.52 6.97ZM187.99 6.97L187.99 5.88L194.21 5.88L194.21 6.97L191.69 6.97L191.69 14.59L194.21 14.59L194.21 15.68L187.99 15.68L187.99 14.59L190.51 14.59L190.51 6.97L187.99 6.97ZM205.69 6.66L205.69 6.66L205.69 6.66Q205.69 6.26 205.98 5.97L205.98 5.97L205.98 5.97Q206.26 5.68 206.67 5.68L206.67 5.68L206.67 5.68Q207.07 5.68 207.36 5.97L207.36 5.97L207.36 5.97Q207.65 6.26 207.65 6.66L207.65 6.66L207.65 6.66Q207.65 6.97 207.48 7.22L207.48 7.22L207.48 7.22Q207.31 7.46 207.05 7.57L207.05 7.57L207.05 9.13L206.29 9.13L206.29 7.57L206.29 7.57Q206.02 7.46 205.86 7.22L205.86 7.22L205.86 7.22Q205.69 6.97 205.69 6.66ZM218.60 15.68L218.60 5.88L220.84 5.88L222.15 15.18L222.32 15.18L223.64 5.88L225.88 5.88L225.88 15.68L224.78 15.68L224.78 6.38L224.62 6.38L223.30 15.68L221.17 15.68L219.86 6.38L219.69 6.38L219.69 15.68L218.60 15.68ZM249.93 6.97L249.93 5.88L256.82 5.88L256.82 6.97L253.96 6.97L253.96 15.68L252.78 15.68L252.78 6.97L249.93 6.97ZM271.75 15.68L271.04 13.24L266.84 13.24L266.13 15.68L264.87 15.68L267.83 5.88L270.05 5.88L273.01 15.68L271.75 15.68ZM269.02 6.38L268.86 6.38L267.16 12.15L270.72 12.15L269.02 6.38ZM281.44 15.68L281.44 5.88L282.62 5.88L282.62 14.59L287.74 14.59L287.74 15.68L281.44 15.68ZM298.21 11.31L298.21 15.68L297.04 15.68L297.04 5.88L298.21 5.88L298.21 10.22L298.54 10.22L302.30 5.88L303.76 5.88L303.76 5.96L299.70 10.70L299.70 10.86L303.93 15.60L303.93 15.68L302.44 15.68L298.54 11.31L298.21 11.31ZM312.54 6.97L312.54 5.88L318.75 5.88L318.75 6.97L316.23 6.97L316.23 14.59L318.75 14.59L318.75 15.68L312.54 15.68L312.54 14.59L315.06 14.59L315.06 6.97L312.54 6.97ZM330.30 5.88L333.13 15.18L333.30 15.18L333.30 5.88L334.47 5.88L334.47 15.68L332.12 15.68L329.29 6.38L329.13 6.38L329.13 15.68L327.95 15.68L327.95 5.88L330.30 5.88ZM345.84 12.07L345.84 10.98L350.21 10.98L350.21 15.68L349.12 15.68L349.12 14.50L348.95 14.50L348.95 14.50Q348.71 15.12 348.11 15.50L348.11 15.50L348.11 15.50Q347.51 15.88 346.71 15.88L346.71 15.88L346.71 15.88Q345.13 15.88 344.22 14.85L344.22 14.85L344.22 14.85Q343.32 13.83 343.32 11.87L343.32 11.87L343.32 9.69L343.32 9.69Q343.32 7.78 344.23 6.73L344.23 6.73L344.23 6.73Q345.14 5.68 346.77 5.68L346.77 5.68L346.77 5.68Q347.61 5.68 348.25 5.96L348.25 5.96L348.25 5.96Q348.89 6.23 349.33 6.71L349.33 6.71L349.33 6.71Q349.76 7.20 349.99 7.85L349.99 7.85L349.99 7.85Q350.21 8.50 350.21 9.24L350.21 9.24L350.21 9.41L349.03 9.41L349.03 9.24L349.03 9.24Q349.03 8.76 348.90 8.32L348.90 8.32L348.90 8.32Q348.77 7.87 348.50 7.53L348.50 7.53L348.50 7.53Q348.22 7.18 347.79 6.98L347.79 6.98L347.79 6.98Q347.37 6.78 346.77 6.78L346.77 6.78L346.77 6.78Q345.63 6.78 345.06 7.60L345.06 7.60L345.06 7.60Q344.50 8.43 344.50 9.77L344.50 9.77L344.50 11.79L344.50 11.79Q344.50 13.23 345.06 14.01L345.06 14.01L345.06 14.01Q345.63 14.78 346.79 14.78L346.79 14.78L346.79 14.78Q347.84 14.78 348.44 14.11L348.44 14.11L348.44 14.11Q349.03 13.44 349.03 12.24L349.03 12.24L349.03 12.07L345.84 12.07ZM380.73 15.68L380.02 13.24L375.82 13.24L375.10 15.68L373.84 15.68L376.81 5.88L379.02 5.88L381.99 15.68L380.73 15.68ZM378.00 6.38L377.83 6.38L376.14 12.15L379.69 12.15L378.00 6.38ZM390.00 15.68L390.00 14.59L390.84 14.59L390.84 6.97L390.00 6.97L390.00 5.88L393.96 5.88L393.96 5.88Q394.66 5.88 395.20 6.08L395.20 6.08L395.20 6.08Q395.74 6.27 396.11 6.61L396.11 6.61L396.11 6.61Q396.48 6.94 396.67 7.41L396.67 7.41L396.67 7.41Q396.86 7.88 396.86 8.43L396.86 8.43L396.86 8.60L396.86 8.60Q396.86 9.00 396.73 9.34L396.73 9.34L396.73 9.34Q396.61 9.67 396.38 9.94L396.38 9.94L396.38 9.94Q396.16 10.21 395.86 10.39L395.86 10.39L395.86 10.39Q395.56 10.58 395.21 10.68L395.21 10.68L395.21 10.85L395.21 10.85Q395.91 11.05 396.38 11.60L396.38 11.60L396.38 11.60Q396.86 12.15 396.86 12.95L396.86 12.95L396.86 13.12L396.86 13.12Q396.86 13.66 396.67 14.13L396.67 14.13L396.67 14.13Q396.48 14.60 396.11 14.95L396.11 14.95L396.11 14.95Q395.74 15.29 395.20 15.48L395.20 15.48L395.20 15.48Q394.66 15.68 393.96 15.68L393.96 15.68L390.00 15.68ZM392.01 11.31L392.01 14.59L393.88 14.59L393.88 14.59Q394.70 14.59 395.22 14.17L395.22 14.17L395.22 14.17Q395.74 13.76 395.74 13.03L395.74 13.03L395.74 12.95L395.74 12.95Q395.74 12.19 395.25 11.75L395.25 11.75L395.25 11.75Q394.76 11.31 393.92 11.31L393.92 11.31L392.01 11.31ZM392.01 6.97L392.01 10.22L393.92 10.22L393.92 10.22Q394.76 10.22 395.25 9.79L395.25 9.79L395.25 9.79Q395.74 9.35 395.74 8.60L395.74 8.60L395.74 8.51L395.74 8.51Q395.74 7.80 395.22 7.38L395.22 7.38L395.22 7.38Q394.70 6.97 393.88 6.97L393.88 6.97L392.01 6.97ZM405.61 11.87L405.61 9.69L405.61 9.69Q405.61 7.78 406.52 6.73L406.52 6.73L406.52 6.73Q407.43 5.68 409.05 5.68L409.05 5.68L409.05 5.68Q410.68 5.68 411.59 6.73L411.59 6.73L411.59 6.73Q412.50 7.78 412.50 9.69L412.50 9.69L412.50 11.87L412.50 11.87Q412.50 13.83 411.59 14.85L411.59 14.85L411.59 14.85Q410.68 15.88 409.05 15.88L409.05 15.88L409.05 15.88Q407.43 15.88 406.52 14.85L406.52 14.85L406.52 14.85Q405.61 13.83 405.61 11.87L405.61 11.87ZM409.05 14.78L409.05 14.78L409.05 14.78Q410.19 14.78 410.75 14.01L410.75 14.01L410.75 14.01Q411.32 13.23 411.32 11.79L411.32 11.79L411.32 9.77L411.32 9.77Q411.32 8.43 410.75 7.60L410.75 7.60L410.75 7.60Q410.19 6.78 409.05 6.78L409.05 6.78L409.05 6.78Q407.92 6.78 407.35 7.60L407.35 7.60L407.35 7.60Q406.78 8.43 406.78 9.77L406.78 9.77L406.78 11.79L406.78 11.79Q406.78 13.23 407.35 14.01L407.35 14.01L407.35 14.01Q407.92 14.78 409.05 14.78ZM421.26 5.88L422.44 5.88L422.44 12.38L422.44 12.38Q422.44 13.57 422.99 14.17L422.99 14.17L422.99 14.17Q423.54 14.78 424.62 14.78L424.62 14.78L424.62 14.78Q425.70 14.78 426.25 14.17L426.25 14.17L426.25 14.17Q426.80 13.57 426.80 12.38L426.80 12.38L426.80 5.88L427.98 5.88L427.98 12.38L427.98 12.38Q427.98 14.08 427.08 14.98L427.08 14.98L427.08 14.98Q426.19 15.88 424.62 15.88L424.62 15.88L424.62 15.88Q423.05 15.88 422.16 14.98L422.16 14.98L422.16 14.98Q421.26 14.08 421.26 12.38L421.26 12.38L421.26 5.88ZM436.74 6.97L436.74 5.88L443.63 5.88L443.63 6.97L440.78 6.97L440.78 15.68L439.60 15.68L439.60 6.97L436.74 6.97Z"></path></g></svg>